PathFileType	4	(X/Y/Z)	C:\Users\Basilio\Documents\Thesis Gigler\squatting_fais\c3dfiles\038\SLS_back_pre4\markers_experimental.trc
DataRate	CameraRate	NumFrames	NumMarkers	Units	OrigDataRate	OrigDataStartFrame	OrigNumFrames
200.000000	200.000000	4	63	mm	200.000000	247	1982
Frame#	Time	FHD			LBHD			RBHD			C7			T10			CLAV			LSHO			LUUPA			LMUPA			LDUPA			LLEP			LMEP			LRAD			LUL			LRFIN			RSHO			RUPA1			RMUPA			RDUPA			RLEP			RMEP			RRAD			RUL			RUFIN			LASI			RASI			USACR			LSACR			RSACR			LTHI1			LTHI2			LTHI3			LTHI4			LLFC			LMFC			LTIB1			LTIB2			LTIB3			LTIB4			LLMAL			LMMAL			LHEE			LMT1			LMT2			LMT5			RTHI			RTHI2			RTHI3			RTHI4			RLFC			RMFC			RTIB1			RTIB2			RTIB3			RTIB4			RLMAL			RMMAL			RHEE			RMT1			RMT2			RMT5			*61			*62			
		X1	Y1	Z1	X2	Y2	Z2	X3	Y3	Z3	X4	Y4	Z4	X5	Y5	Z5	X6	Y6	Z6	X7	Y7	Z7	X8	Y8	Z8	X9	Y9	Z9	X10	Y10	Z10	X11	Y11	Z11	X12	Y12	Z12	X13	Y13	Z13	X14	Y14	Z14	X15	Y15	Z15	X16	Y16	Z16	X17	Y17	Z17	X18	Y18	Z18	X19	Y19	Z19	X20	Y20	Z20	X21	Y21	Z21	X22	Y22	Z22	X23	Y23	Z23	X24	Y24	Z24	X25	Y25	Z25	X26	Y26	Z26	X27	Y27	Z27	X28	Y28	Z28	X29	Y29	Z29	X30	Y30	Z30	X31	Y31	Z31	X32	Y32	Z32	X33	Y33	Z33	X34	Y34	Z34	X35	Y35	Z35	X36	Y36	Z36	X37	Y37	Z37	X38	Y38	Z38	X39	Y39	Z39	X40	Y40	Z40	X41	Y41	Z41	X42	Y42	Z42	X43	Y43	Z43	X44	Y44	Z44	X45	Y45	Z45	X46	Y46	Z46	X47	Y47	Z47	X48	Y48	Z48	X49	Y49	Z49	X50	Y50	Z50	X51	Y51	Z51	X52	Y52	Z52	X53	Y53	Z53	X54	Y54	Z54	X55	Y55	Z55	X56	Y56	Z56	X57	Y57	Z57	X58	Y58	Z58	X59	Y59	Z59	X60	Y60	Z60	X61	Y61	Z61	X62	Y62	Z62	X63	Y63	Z63	

248	1.235	-212.1564025878907	1771.750366210938	-979.2349243164065	-370.2649536132813	1730.61083984375	-1037.8720703125	-360.5743713378907	1714.987915039063	-893.695739746094	-417.9100036621095	1541.16064453125	-967.0709228515627	-391.5408935546876	1259.977905273438	-955.6658325195315	-273.5863342285157	1531.927124023438	-979.9959716796877	-344.6766967773438	1565.627807617188	-1123.624877929688	-193.0651092529297	1474.281860351563	-1260.493774414063	-160.7277526855469	1507.540405273438	-1240.171264648438	-124.9675979614258	1474.013427734375	-1274.820922851563	-63.04227447509767	1469.265258789063	-1279.963745117188	-57.26480865478517	1397.85205078125	-1248.367431640625	221.0261688232422	1463.940307617188	-1177.841796875	231.1273803710938	1457.382446289063	-1248.780029296875	296.6728820800782	1494.479370117188	-1167.985107421875	-324.5505981445313	1563.996948242188	-831.5220336914065	-169.5491027832032	1518.133056640625	-708.1666259765626	-131.9068908691407	1528.017456054688	-738.0305175781251	-102.686882019043	1508.070678710938	-688.7130126953126	-28.85197448730469	1499.2392578125	-677.3433837890626	-27.62318420410157	1420.55419921875	-696.1165161132814	238.8287811279297	1489.474853515625	-782.8597412109377	256.0115051269532	1491.349731445313	-713.8262329101564	318.9010925292969	1521.838745117188	-788.6404418945315	-221.1214904785157	1075.158813476563	-1074.381591796875	-218.825668334961	1089.456298828125	-822.833435058594	-389.8421936035157	1129.361328125	-948.7869873046877	-403.6960449218751	1099.643310546875	-975.0965576171877	-400.7565002441407	1101.378051757813	-918.8977661132815	-273.3973999023438	752.1697387695314	-1117.670043945313	-246.8640594482422	671.3995361328126	-1108.935302734375	-199.5948638916016	674.2902832031251	-1089.029052734375	-276.9355773925782	624.3886718750001	-1088.686645507813	-276.1994628906251	562.1356811523439	-1080.420532226563	-262.7415466308594	554.5749511718751	-960.9730224609377	-257.5994873046876	371.2306518554688	-1009.864990234375	-304.5275268554688	332.9942016601563	-1075.455688476563	-270.2398681640626	325.7157287597657	-1046.44189453125	-288.8809204101563	247.4441375732422	-1018.262084960938	-382.6115112304688	121.3116912841797	-1036.746215820313	-343.0287170410157	135.2164001464844	-966.5681152343752	-432.3704223632814	101.9061813354492	-981.7929687500002	-233.7503967285157	48.32884979248048	-976.0523681640627	-226.0060119628907	45.50045394897462	-1026.63671875	-271.6261596679688	34.28931427001954	-1073.52783203125	-281.8144531250001	814.0415039062502	-766.6481323242189	-249.7135772705079	754.8584594726564	-762.2006835937501	-216.3591766357422	754.3717041015626	-766.3493652343751	-283.5316467285157	678.2136230468751	-781.7415771484377	-279.5253906250001	541.7897949218751	-791.210632324219	-279.3366699218751	541.5026245117189	-911.8540649414065	-245.788314819336	364.0922241210938	-818.6917724609377	-324.6312561035157	288.8848876953126	-779.1467285156252	-279.0930480957032	289.0838623046876	-791.0764770507815	-273.0787353515626	238.007553100586	-820.8144531250002	-343.9265136718751	120.0732574462891	-791.209411621094	-315.3851928710938	126.0845565795899	-870.1381835937502	-405.6245727539064	85.94841766357423	-851.7712402343752	-192.014389038086	49.09550857543947	-849.791687011719	-193.0496520996094	48.6356544494629	-802.527038574219	-236.8258209228516	35.10815811157227	-758.1336669921876	nan	nan	nan	nan	nan	nan	
249	1.24	-212.2298889160157	1771.796752929688	-979.3701171875002	-370.3815002441407	1730.627685546875	-1037.9423828125	-360.6930541992188	1714.988891601563	-893.8308105468752	-418.0040893554689	1541.136962890625	-967.0891113281252	-391.5231933593751	1260.005493164063	-955.7505493164065	-273.6259460449219	1532.026611328125	-980.1308593750002	-344.8798522949219	1565.713623046875	-1123.566528320313	-192.8326721191407	1475.570068359375	-1260.244384765625	-160.5481109619141	1508.673828125	-1239.985473632813	-124.6376495361328	1475.6044921875	-1274.732788085938	-62.21554183959962	1470.784912109375	-1279.734985351563	-56.7273292541504	1399.575927734375	-1248.213134765625	221.2486114501954	1466.734619140625	-1177.544555664063	231.4747924804688	1460.253173828125	-1248.27001953125	297.1456298828126	1497.150268554688	-1167.311279296875	-324.6723327636719	1564.185913085938	-831.8257446289065	-169.210678100586	1519.0947265625	-708.7045288085939	-131.90087890625	1529.146606445313	-738.5206909179689	-102.6448822021485	1509.486572265625	-689.0856323242189	-28.42829513549805	1500.943115234375	-677.8802490234376	-26.87057495117188	1422.197875976563	-696.7820434570314	239.0470428466797	1491.973876953125	-783.561462402344	256.1809082031251	1494.26171875	-714.5570678710939	318.8320922851563	1524.921997070313	-789.3569335937502	-221.1661071777344	1075.15234375	-1074.473266601563	-218.7584228515626	1089.431640625	-822.9746704101565	-389.827606201172	1129.357055664063	-948.8911743164065	-403.6360778808595	1099.635986328125	-975.2010498046877	-400.7244567871095	1101.39453125	-918.982360839844	-273.3108520507813	752.1579589843751	-1117.634033203125	-246.8234863281251	671.3499755859376	-1108.948852539063	-199.5625152587891	674.3255004882814	-1089.046508789063	-276.8222961425782	624.3894653320314	-1088.70263671875	-276.1689453125001	562.1431884765626	-1080.415161132813	-262.7776184082032	554.5447387695314	-960.9919433593752	-257.5816040039063	371.1657409667969	-1009.843200683594	-304.5116577148438	333.0433349609376	-1075.423828125	-270.2602844238282	325.6979370117188	-1046.370971679688	-288.9085693359376	247.4709930419922	-1018.194091796875	-381.8808593750001	121.3455276489258	-1036.426635742188	-343.0174865722657	135.2378997802735	-966.5225830078127	-432.3710021972657	101.9485778808594	-981.7922973632815	-233.7199249267579	48.34569168090822	-976.0567016601565	-226.0236511230469	45.46631622314454	-1026.60400390625	-271.5946655273438	34.28516387939454	-1073.5048828125	-281.7425231933594	814.047302246094	-766.7066040039064	-249.6566619873047	754.8790283203126	-762.3167724609376	-216.3569030761719	754.3233642578126	-766.4574584960939	-283.4886169433594	678.2355346679689	-781.7752075195315	-279.4152832031251	541.7811279296876	-791.297058105469	-279.2994384765626	541.5288085937501	-911.9273681640627	-245.7855682373047	364.1217346191407	-818.6950683593752	-324.6105041503907	288.9108581542969	-779.1738891601565	-279.0708312988282	289.0927734375001	-791.088562011719	-272.9334106445313	237.8175506591797	-820.8509521484377	-343.8550415039063	120.0638046264649	-791.2060546875002	-315.3228759765626	126.1030044555664	-870.1602783203127	-405.6350402832032	85.9506072998047	-851.766540527344	-192.0184326171876	49.07185745239259	-849.7730712890627	-193.0540618896485	48.59291839599611	-802.5012207031252	-236.869613647461	35.12458038330079	-758.1604614257814	nan	nan	nan	nan	nan	nan	
250	1.245	-212.4508666992188	1771.778686523438	-979.4268798828127	-370.5167541503907	1730.660278320313	-1038.015625	-360.7677612304688	1714.964721679688	-893.8990478515627	-418.0535278320314	1541.152221679688	-967.1792602539065	-391.580535888672	1259.946044921875	-955.8813476562502	-273.6821289062501	1532.107299804688	-980.2543945312502	-344.9969787597657	1565.848754882813	-1123.487060546875	-192.6169738769532	1476.873168945313	-1260.34228515625	-160.6590728759766	1509.75732421875	-1239.7548828125	-124.5010147094727	1477.195434570313	-1274.486450195313	-62.43660736083986	1472.927856445313	-1279.610473632813	-56.13528442382814	1401.20556640625	-1248.202026367188	221.3200683593751	1469.407592773438	-1177.371459960938	231.7281646728516	1463.120483398438	-1247.760498046875	297.1110534667969	1500.1416015625	-1166.672607421875	-324.6441345214844	1564.305053710938	-832.0734863281252	-169.1442260742188	1520.24658203125	-709.0668945312501	-131.9889373779297	1530.242797851563	-738.9351196289064	-102.4795532226563	1510.660888671875	-689.6001586914064	-28.37776947021485	1502.617309570313	-678.5570678710939	-26.39836120605469	1424.007568359375	-697.2857666015626	239.2964477539063	1494.743896484375	-784.2893066406252	256.6608581542969	1497.125	-715.5702514648439	318.8998107910157	1527.630737304688	-790.1715087890627	-221.1427917480469	1075.162475585938	-1074.544311523438	-218.7184448242188	1089.443725585938	-823.0103149414065	-389.7940368652345	1129.308471679688	-948.9921875000002	-403.5541992187501	1099.579711914063	-975.2893676757815	-400.6602172851564	1101.358276367188	-919.093933105469	-273.2243957519532	752.1160888671876	-1117.693481445313	-246.7681732177735	671.3482666015626	-1108.956787109375	-199.5161132812501	674.2711791992189	-1089.05322265625	-276.7551269531251	624.3460693359376	-1088.719482421875	-276.0615234375001	562.1030883789064	-1080.470458984375	-262.7058105468751	554.6049804687501	-961.0085449218752	-257.5134277343751	371.2448730468751	-1009.770324707031	-304.5252685546876	332.9979248046876	-1075.3994140625	-270.2405090332032	325.6762390136719	-1046.356201171875	-288.8842773437501	247.449447631836	-1018.199096679688	-382.5490112304688	121.3921508789063	-1036.68017578125	-342.5955810546876	135.4700164794922	-966.3043212890627	-432.3645324707032	101.9546051025391	-981.7843017578127	-233.7340698242188	48.32481002807619	-976.0274658203127	-226.0035552978516	45.44638824462891	-1026.55517578125	-271.6148071289063	34.30139160156251	-1073.509521484375	-281.6863098144532	814.0737304687502	-766.8129272460939	-249.6719360351563	754.9306640625001	-762.3595581054689	-216.2466888427735	754.3632812500001	-766.5751953125001	-283.4571228027344	678.2418823242189	-781.8380126953127	-279.4110717773438	541.7994995117189	-791.327331542969	-279.3248291015626	541.5245361328126	-911.935485839844	-245.7194976806641	364.1684570312501	-818.717224121094	-324.6084899902344	288.8826904296876	-779.2156982421877	-279.0268554687501	289.0944519042969	-791.101501464844	-273.0345153808594	238.0565338134766	-820.8421630859377	-343.8784179687501	120.0626525878907	-791.2341918945315	-315.3244934082032	126.2417984008789	-870.189636230469	-405.6267700195314	86.00304412841798	-851.7304687500002	-192.0243072509766	49.04845809936525	-849.7593994140627	-193.0099487304688	48.56689834594728	-802.5274047851565	-236.8399353027344	35.12545776367188	-758.1663208007814	nan	nan	nan	nan	nan	nan	
251	1.25	-212.5569763183594	1771.8564453125	-979.5525512695315	-370.6234741210938	1730.582397460938	-1038.148803710938	-360.8795776367188	1714.951904296875	-894.003845214844	-418.1246337890626	1541.090698242188	-967.252136230469	-391.5078430175782	1259.997802734375	-955.9733886718752	-273.7612915039063	1532.189453125	-980.3499755859377	-345.2214965820313	1565.970947265625	-1123.390502929688	-192.4637451171876	1477.935424804688	-1260.14208984375	-160.4421997070313	1511.268188476563	-1239.468017578125	-124.1283187866211	1478.704345703125	-1274.400146484375	-62.20949554443361	1474.485107421875	-1279.421508789063	-55.61660385131837	1402.97216796875	-1248.094970703125	221.538803100586	1472.006591796875	-1176.880126953125	232.2080841064454	1466.069580078125	-1247.46484375	297.1510314941407	1503.04248046875	-1166.08056640625	-324.8283996582032	1564.486328125	-832.4690551757815	-169.0344848632813	1521.366577148438	-709.5422973632814	-132.1845855712891	1531.190795898438	-739.7365112304689	-102.2651443481446	1512.243530273438	-690.3075561523439	-28.19234275817872	1504.077758789063	-679.2414550781251	-26.09790420532227	1425.101318359375	-697.7254638671876	239.6003417968751	1497.459350585938	-785.0083618164065	256.9157104492188	1499.927978515625	-716.2726440429689	319.0319213867188	1530.762451171875	-790.997985839844	-221.1730957031251	1075.141967773438	-1074.623901367188	-218.5801086425782	1089.530395507813	-823.0766601562502	-389.7025146484376	1129.25830078125	-949.0960693359377	-403.505340576172	1099.541259765625	-975.3898925781252	-400.6315002441407	1101.339233398438	-919.1898193359377	-273.1985168457032	752.1362304687501	-1117.741821289063	-246.4043884277344	671.5836181640626	-1109.000854492188	-199.4436950683594	674.2530517578126	-1088.969360351563	-276.6773376464844	624.3442993164064	-1088.737915039063	-275.9648742675782	562.0870361328126	-1080.469116210938	-262.6299438476563	554.6160888671876	-961.025817871094	-257.5616760253907	371.2018432617188	-1009.727233886719	-304.4886474609376	333.0090026855469	-1075.378662109375	-270.0923461914063	325.6167602539063	-1046.2890625	-288.8402709960938	247.4186553955079	-1018.126342773438	-382.5168151855469	121.3813247680664	-1036.665405273438	-342.9981079101563	135.2579193115235	-966.4544677734377	-432.3697814941407	101.9187469482422	-981.785339355469	-233.712875366211	48.3222007751465	-975.9893188476565	-225.9709472656251	45.4266471862793	-1026.5302734375	-271.5870666503907	34.31499481201173	-1073.484985351563	-281.6231994628907	814.1113891601565	-766.8838500976564	-249.6191711425782	754.9624023437501	-762.3701782226564	-216.1622009277344	754.3971557617189	-766.6387939453126	-283.4140930175782	678.2808227539064	-781.878845214844	-279.3933410644532	541.7966308593751	-791.372741699219	-279.2893066406251	541.5397949218751	-911.9783325195315	-245.6934967041016	364.1613769531251	-818.732116699219	-324.5595703125001	288.9616088867188	-779.2020263671877	-279.0206298828126	289.1223144531251	-791.1135253906252	-273.0278625488282	238.0974273681641	-820.8489379882815	-343.8567810058594	120.0821838378907	-791.208190917969	-315.3217468261719	126.2057647705078	-870.1622314453127	-405.6171875000001	85.9789276123047	-851.7576293945315	-192.0056762695313	49.23833084106447	-849.615905761719	-193.1690979003907	48.37503814697267	-802.6321411132815	-236.8364257812501	35.10533142089844	-758.1594848632814	nan	nan	nan	nan	nan	nan	
